<svg width="71" height="75" viewBox="0 0 71 75" fill="none" xmlns="http://www.w3.org/2000/svg">
<path d="M26.5176 68.6146C21.5249 67.1931 17.134 64.5758 13.3004 60.9206C12.0968 61.3493 10.8709 61.778 9.6227 62.1841C9.04319 62.3646 8.46368 62.2969 7.86189 62.0713C6.79202 61.6652 6.14565 60.8755 5.67758 59.9052C5.03121 58.6191 4.20652 57.4458 3.56015 56.1597C2.98064 54.9639 2.13366 53.926 1.64331 52.685C1.39813 52.0758 0.751759 51.6697 0.751759 50.9025C0.17225 49.9549 0.72947 49.12 1.0638 48.2852C1.15296 48.0596 1.2644 47.7662 1.465 47.676C2.2674 47.315 2.6686 46.5027 3.33726 46.0063C3.6493 45.7807 3.98364 45.5325 4.34026 45.2617C3.82761 42.667 3.38184 40.0722 3.38184 37.4097C3.38184 34.7699 3.8499 32.2202 4.34026 29.6931C3.47099 28.8809 2.6686 28.0912 1.82162 27.3466C0.952358 26.5794 0.439716 25.6318 0.55116 24.639C0.618026 24.0975 0.774048 23.5108 1.04151 23.0596C1.8662 21.7283 2.62402 20.3294 3.42642 18.9756C4.07279 17.8926 4.63001 16.7644 5.34325 15.704C5.72216 15.1625 5.94505 14.5307 6.32396 13.9666C7.05949 12.9061 8.53055 12.3872 9.73415 12.7482C10.804 13.0641 11.807 13.5379 12.8992 13.741C13.0106 13.7635 13.0998 13.9215 13.2112 14.0343C17.0672 10.4016 21.4581 7.80686 26.4953 6.29513C26.6959 5.68592 26.7405 5.03159 26.9857 4.39982C27.164 3.92599 27.1194 3.33935 27.2086 2.8204C27.4537 1.46661 28.2784 0.676895 29.4597 0.270758C29.8832 0.135379 30.3067 0 30.8194 0C33.9398 0.0451264 37.0602 0.0451264 40.1807 0C41.0722 0 41.83 0.361011 42.5433 0.767148C43.1896 1.1056 43.5463 1.82762 43.7246 2.50451C44.0366 3.74549 44.2149 5.00903 44.4601 6.31769C49.4751 7.76173 53.866 10.3565 57.6997 14.0117C58.9032 13.583 60.1291 13.1543 61.3773 12.7482C61.9568 12.5677 62.5363 12.6354 63.1381 12.861C64.208 13.2671 64.8544 14.0569 65.3224 15.0271C65.9688 16.3132 66.7935 17.4865 67.4399 18.7726C68.0194 19.9684 68.8663 21.0063 69.3567 22.2473C69.6019 22.8565 70.2482 23.2626 70.2482 24.0298C70.8278 24.9774 70.2705 25.8123 69.9362 26.6471C69.847 26.8727 69.7356 27.1661 69.535 27.2563C68.7326 27.6173 68.3314 28.4296 67.6627 28.926C67.3507 29.1516 67.0164 29.3998 66.6597 29.6706C67.1724 32.2653 67.6182 34.8601 67.6182 37.5226C67.6182 40.1625 67.217 42.7121 66.6597 45.2392C67.529 46.0514 68.3314 46.8412 69.1784 47.5857C70.0476 48.3529 70.5603 49.3005 70.4488 50.2933C70.382 50.8348 70.2482 51.4215 69.9585 51.8727C69.1561 53.1814 68.3983 54.5352 67.6182 55.8664C66.6375 57.5135 65.8351 59.296 64.6983 60.8529C64.4977 61.7103 63.6953 61.778 63.1158 62.0939C62.4917 62.4323 61.8677 62.3421 61.1767 62.139C60.1514 61.8457 59.1707 61.3267 58.1008 61.1913C57.9894 61.1688 57.9002 61.0108 57.7888 60.898C53.9328 64.5758 49.5642 67.1931 44.4601 68.6597C44.2149 69.8782 43.992 71.1417 43.7246 72.3827C43.4571 73.6011 42.6547 74.3682 41.518 74.7292C41.0945 74.8646 40.6487 75 40.1584 75C37.0379 74.9549 33.9175 74.9549 30.7971 75C29.9055 75 29.1477 74.639 28.4345 74.2329C27.7881 73.8944 27.4092 73.1724 27.2754 72.4955C27.0303 71.1643 26.7851 69.9233 26.5176 68.6146ZM27.9664 48.7365C28.4122 48.4883 28.9248 48.3303 28.9471 47.7888C28.9917 46.9765 29.1031 46.1417 28.9248 45.3745C28.6128 44.0659 28.0555 42.8023 27.7212 41.4937C27.4983 40.6588 27.008 39.8691 27.0303 38.9666C26.317 37.1841 25.8712 35.3114 25.2694 33.5063C24.7791 32.0171 24.4225 30.4829 23.8875 29.0162C23.5978 28.204 23.5309 27.3014 22.996 26.5794C22.9514 26.5117 22.9291 26.4666 22.9291 26.4666C22.3273 26.0605 21.7032 26.1958 21.1683 26.1958C20.8563 26.4892 20.5888 26.7374 20.3436 26.963C20.3213 27.685 19.8087 28.2491 19.8978 28.9486C19.1177 30.7085 18.7834 32.6038 18.137 34.4088C17.8027 35.3339 17.6021 36.2816 17.3346 37.2292C17.0895 38.1769 16.5545 39.0343 16.5545 40.0496C15.7075 41.9675 15.2841 44.0208 14.66 46.0289C14.5039 46.5253 14.4148 46.9991 14.7268 47.4729C14.816 47.6083 14.7714 47.8114 14.7714 47.7888C15.128 48.1724 15.3955 48.4431 15.6184 48.7139C16.0419 48.7139 16.4877 48.7139 16.9557 48.7139C17.2678 48.3078 17.5798 47.9242 17.8696 47.5406C17.8027 46.2545 18.0702 45.3971 18.6497 44.0208C20.834 44.0208 23.0183 44.0208 25.2026 44.0208C25.3809 44.7428 25.47 45.4422 25.7152 46.0966C25.8267 46.3673 25.9381 46.6381 25.8935 46.9088C25.8267 47.7437 26.0941 48.398 27.0303 48.7139C27.2531 48.7365 27.5875 48.7365 27.9664 48.7365ZM33.182 48.7365C33.7838 48.6913 34.4747 48.8718 34.9651 48.3755C35.1434 48.1498 35.2994 47.9242 35.5223 47.6083C35.5223 45.352 35.5223 42.9829 35.5223 40.6137C37.1494 40.6137 38.7542 40.546 40.3367 40.6363C41.2951 40.6814 42.0752 40.3881 42.833 39.9143C43.1896 39.6886 43.5017 39.3502 43.8137 39.0343C44.6384 38.222 45.0396 37.2292 45.0619 36.056C45.0619 34.2058 45.0619 32.3782 45.0619 30.528C45.0619 30.2572 44.995 29.9639 44.9282 29.6931C44.683 28.7229 44.1703 28.0009 43.4794 27.3691C42.677 26.6245 41.7409 26.1733 40.6264 26.1733C38.1301 26.1733 35.656 26.1733 33.1374 26.1733C32.8922 26.444 32.647 26.7148 32.3573 26.9856C32.3573 33.935 32.3573 40.9296 32.3573 47.9468C32.647 48.1949 32.9145 48.4657 33.182 48.7365ZM49.2299 48.7365C50.7678 48.7365 52.328 48.7365 53.866 48.7365C54.1334 48.4657 54.4009 48.1949 54.6684 47.9468C54.6684 47.5181 54.6684 47.1119 54.6684 46.6832C54.6684 46.6381 54.6684 46.6155 54.6684 46.593C54.334 45.9612 53.8214 45.5776 53.1527 45.5099C53.1527 40.1173 53.1527 34.7473 53.1527 29.4901C53.6431 29.2419 54.0666 29.0162 54.5569 28.7455C54.6238 28.1588 54.6684 27.5496 54.713 27.1209C54.3563 26.7148 54.1112 26.4215 53.9106 26.1958C52.3058 26.1958 50.7455 26.1958 49.3636 26.1958C48.9847 26.5343 48.7173 26.7825 48.3829 27.0984C48.4498 27.6399 48.539 28.2491 48.6058 28.7681C49.1407 29.0388 49.5642 29.2644 49.9431 29.4675C49.9431 34.8375 49.9431 40.2076 49.9431 45.5325C49.7203 45.5776 49.4751 45.5325 49.3859 45.6453C49.0739 45.9612 48.539 46.0514 48.4275 46.5704C48.4275 47.0217 48.4275 47.4729 48.4275 47.9242C48.695 48.1949 48.9624 48.4657 49.2299 48.7365Z" fill="white"/>
<path d="M24.0213 40.5683C22.7063 40.6134 21.3243 40.636 19.9424 40.6811C19.8979 40.6811 19.831 40.7714 19.6973 40.8842C19.7196 39.4853 20.4997 38.3571 20.5888 37.071C21.2575 35.9428 21.3243 34.6116 21.7701 33.3481C21.9039 33.4835 22.1045 33.6188 22.1045 33.7317C22.1267 34.7019 22.684 35.5367 22.8623 36.4618C22.996 37.0936 23.3526 37.7028 23.4418 38.3345C23.5309 39.1468 24.0659 39.756 24.0213 40.5683Z" fill="white"/>
<path d="M41.9641 36.1917C41.8081 36.4399 41.6743 36.6881 41.496 36.9138C41.184 37.2748 40.7828 37.4778 40.2701 37.4553C38.7099 37.4327 37.1497 37.4553 35.5449 37.4553C35.5449 34.7703 35.5449 32.0852 35.5449 29.3325C37.172 29.3325 38.8437 29.31 40.493 29.3325C41.2731 29.3551 41.9418 30.1674 41.9641 31.0248C41.9641 32.4463 41.9641 33.8677 41.9641 35.2892C41.9641 35.6051 41.9641 35.8984 41.9641 36.1917Z" fill="white"/>
</svg>
