<svg width="71" height="75" viewBox="0 0 71 75" fill="none" xmlns="http://www.w3.org/2000/svg">
<path d="M0.506213 0.0132157C0.506213 0.303961 0.492234 0.502197 0.506213 0.700433C1.03742 6.19817 1.56863 11.6959 2.08586 17.2069C2.81278 25.0041 3.52572 32.8014 4.25263 40.5855C5.07741 49.3343 5.91616 58.0699 6.71297 66.8187C6.76889 67.453 7.00653 67.7305 7.6356 67.8891C16.5823 70.2151 25.501 72.5543 34.4477 74.867C35.0488 75.0256 35.7757 75.052 36.3768 74.8934C45.3514 72.5675 54.3121 70.2019 63.2867 67.8627C63.9717 67.6777 64.2094 67.3869 64.2653 66.7261C64.5449 63.4222 64.8804 60.1051 65.1879 56.8011C65.7051 51.3298 66.2084 45.8585 66.7256 40.3872C67.3267 33.9644 67.9418 27.5548 68.5429 21.1319C68.9902 16.3478 69.4655 11.577 69.9129 6.79288C70.1226 4.54621 70.3043 2.29953 70.5 0H0.506213V0.0132157ZM56.9961 19.0967C56.5348 23.9337 56.0735 28.7838 55.6122 33.6208C55.081 39.1846 54.5497 44.7484 54.0185 50.299C53.8648 51.8981 53.6411 53.4972 53.5992 55.1095C53.5712 55.9686 53.1798 56.1932 52.4249 56.3915C47.0289 57.7659 41.647 59.18 36.265 60.5808C36.0273 60.6469 35.8037 60.7262 35.566 60.7923C35.4821 60.7526 35.3983 60.7262 35.3004 60.6866C29.541 59.2064 23.7816 57.713 18.0221 56.2064C17.7845 56.1404 17.4769 55.7835 17.449 55.5324C17.0436 51.4091 16.6801 47.2858 16.2887 43.0832H25.0816C25.2354 44.7352 25.4031 46.4136 25.5429 48.1052C25.6687 49.6647 25.6548 49.6647 27.2065 50.0611C29.9883 50.7616 32.7842 51.4488 35.566 52.136L35.5381 52.0699C38.5855 51.3034 41.633 50.5501 44.6804 49.7307C44.96 49.6514 45.2815 49.2285 45.3235 48.9378C45.5052 47.6691 45.6031 46.3872 45.7149 45.1185C45.8966 43.07 46.0784 41.0216 46.2741 38.8806H35.5381L35.566 38.8278C35.4961 38.8278 35.4122 38.8278 35.3423 38.8278H15.8833C15.6177 36.0921 15.3661 33.3829 15.1005 30.5944H35.3563C35.4262 30.5944 35.5101 30.5944 35.58 30.5944L35.552 30.5415H47.0569C47.3225 27.7001 47.5881 24.9248 47.8537 22.0967H35.5381L35.566 22.0438C35.4961 22.0438 35.4122 22.0438 35.3423 22.0438C28.4506 22.057 21.5589 22.057 14.6671 22.0702C14.5693 22.0702 14.4714 22.0306 14.2897 21.9777C14.0381 19.2817 13.7725 16.5857 13.5208 13.8104H35.3423C35.4122 13.8104 35.4961 13.8104 35.566 13.8104L35.5381 13.7576H57.4574C57.3036 15.6078 57.1499 17.3522 56.9961 19.0967Z" fill="white"/>
</svg>
