<svg width="71" height="75" viewBox="0 0 71 75" fill="none" xmlns="http://www.w3.org/2000/svg">
<path d="M69.196 34.1966L38.5883 1.40701C36.8371 -0.469005 33.9438 -0.469005 32.1927 1.40701L25.8732 8.177L33.9438 16.823C35.8473 16.1705 37.9792 16.5783 39.4258 18.2096C40.9486 19.8409 41.3293 22.1248 40.7202 24.1639L48.4863 32.4837C50.3898 31.8312 52.5216 32.239 54.0444 33.8703C56.1763 36.0726 56.1763 39.7431 54.0444 42.0269C51.9125 44.3108 48.5624 44.3108 46.4306 42.0269C44.8316 40.314 44.451 37.8671 45.2885 35.7463L38.0553 27.9976V48.3891C38.5883 48.6338 39.0451 49.0416 39.502 49.4494C41.6338 51.6517 41.6338 55.3222 39.502 57.606C37.3701 59.8083 34.02 59.8083 31.8881 57.606C29.7562 55.3222 29.7562 51.7333 31.8881 49.4494C32.4211 48.8785 33.0302 48.4706 33.6393 48.2259V27.5897C33.0302 27.345 32.4211 26.8556 31.8881 26.3662C30.2892 24.6533 29.9085 22.2064 30.746 20.0856L22.7515 11.6028L1.81339 34.0334C0.0622035 35.9095 0.0622035 39.009 1.81339 40.885L32.3449 73.593C34.0961 75.469 36.9894 75.469 38.7406 73.593L69.1198 41.0481C70.9472 39.0905 70.9472 36.0726 69.196 34.1966Z" fill="white"/>
</svg>
