<svg width="70" height="75" viewBox="0 0 70 75" fill="none" xmlns="http://www.w3.org/2000/svg">
<path d="M0 0C23.3491 0 46.6509 0 70 0C70 25.0169 70 50.0338 70 75C46.6982 75 23.3491 75 0 75C0 49.9325 0 24.9662 0 0ZM62.6266 39.7029C61.2086 36.9683 59.2708 35.0945 56.4821 34.4362C54.497 33.9298 52.5118 33.9298 50.5267 34.3856C44.0986 35.8035 41.3572 44.1087 45.5165 49.6286C46.9818 51.553 48.9196 52.7178 50.9521 53.7306C52.7481 54.6421 54.5915 55.503 56.3876 56.4652C57.6165 57.1236 58.1364 58.339 57.9946 59.8076C57.8528 61.2762 56.9075 62.0864 55.7259 62.5422C53.079 63.555 50.0068 62.6435 48.2107 60.2633C47.8325 59.7569 47.4544 59.1999 47.0763 58.6428C45.2802 59.7569 43.5314 60.8204 41.7826 61.9345C42.8697 64.2134 44.3822 66.0365 46.4618 67.2519C50.0068 69.3282 53.7407 69.632 57.5692 68.6192C60.0743 67.9608 62.2012 66.5935 63.5246 64.1121C65.9824 59.4024 64.5645 53.528 60.2161 50.6415C58.2782 49.3754 56.104 48.5145 54.0716 47.4004C53.079 46.8433 52.0392 46.3369 51.1884 45.628C49.6759 44.3113 49.9595 41.6779 51.661 40.6651C53.3153 39.6523 55.6313 40.26 56.9075 42.0324C57.1911 42.3869 57.3801 42.792 57.6637 43.1972C59.2708 42.0324 60.9251 40.8677 62.6266 39.7029ZM18.4335 62.6941C19.3788 64.8717 20.7495 66.5935 22.6874 67.7076C25.1924 69.1762 27.9338 69.4294 30.7225 68.9737C33.2276 68.5685 35.3072 67.3531 36.6779 64.9223C37.8123 62.8967 38.1431 60.6685 38.1431 58.2883C38.1431 50.5908 38.1431 42.8933 38.1431 35.1958C38.1431 34.9932 38.1431 34.74 38.1431 34.4868C35.9217 34.4868 33.7947 34.4868 31.5733 34.4868C31.5733 34.7907 31.5733 35.0439 31.5733 35.3477C31.5733 42.944 31.5733 50.4895 31.5733 58.0858C31.5733 58.7947 31.526 59.5544 31.4315 60.2633C31.2424 61.4281 30.6752 62.289 29.5881 62.6435C27.5557 63.3018 25.9014 62.6435 24.7198 60.7698C24.4362 60.2633 24.1526 59.7569 23.8217 59.2505C21.9784 60.4153 20.2296 61.5294 18.4335 62.6941Z" fill="white"/>
</svg>
