<svg xmlns="http://www.w3.org/2000/svg" xmlns:xlink="http://www.w3.org/1999/xlink" width="75" zoomAndPan="magnify" viewBox="0 0 56.25 56.249997" height="75" preserveAspectRatio="xMidYMid meet" version="1.0"><path fill="#ffffff" d="M 48.90625 13.15625 L 29.78125 2.050781 C 28.574219 1.363281 27.003906 1.363281 25.789062 2.050781 L 6.460938 13.15625 C 5.21875 13.871094 4.335938 15.214844 4.335938 16.65625 L 4.335938 38.835938 C 4.335938 40.273438 5.242188 41.621094 6.484375 42.339844 L 11.589844 45.242188 C 14.03125 46.441406 14.894531 46.441406 16.003906 46.441406 C 19.621094 46.441406 21.683594 44.257812 21.683594 40.445312 L 21.683594 18.550781 C 21.683594 18.242188 21.523438 17.78125 21.21875 17.78125 L 18.78125 17.78125 C 18.472656 17.78125 17.78125 18.242188 17.78125 18.550781 L 17.78125 40.445312 C 17.78125 42.136719 16.253906 43.816406 13.394531 42.386719 L 8.121094 39.347656 C 7.9375 39.246094 7.804688 39.046875 7.804688 38.835938 L 7.804688 16.65625 C 7.804688 16.445312 8.046875 16.238281 8.230469 16.128906 L 27.496094 5.042969 C 27.675781 4.941406 27.941406 4.941406 28.121094 5.042969 L 47.152344 16.128906 C 47.332031 16.238281 47.269531 16.441406 47.269531 16.65625 L 47.269531 38.835938 C 47.269531 39.046875 47.347656 39.253906 47.167969 39.355469 L 28.050781 50.445312 C 27.886719 50.542969 27.683594 50.542969 27.503906 50.445312 L 22.601562 47.519531 C 22.453125 47.433594 22.277344 47.402344 22.132812 47.480469 C 20.769531 48.253906 20.519531 48.359375 19.238281 48.800781 C 18.925781 48.910156 18.460938 49.101562 19.417969 49.636719 L 25.835938 53.433594 C 26.449219 53.789062 27.148438 53.976562 27.847656 53.976562 C 28.5625 53.976562 29.257812 53.789062 29.875 53.433594 L 48.90625 42.339844 C 50.148438 41.613281 50.738281 40.273438 50.738281 38.835938 L 50.738281 16.65625 C 50.738281 15.214844 50.148438 13.875 48.90625 13.15625 Z M 33.789062 35.320312 C 28.703125 35.320312 27.582031 33.917969 27.207031 31.386719 C 27.164062 31.117188 26.933594 30.789062 26.65625 30.789062 L 24.171875 30.789062 C 23.863281 30.789062 23.617188 31.164062 23.617188 31.46875 C 23.617188 34.707031 25.378906 38.628906 33.789062 38.628906 C 39.875 38.628906 43.367188 36.265625 43.367188 32.078125 C 43.367188 27.925781 40.5625 26.835938 34.65625 26.054688 C 28.691406 25.265625 28.082031 24.867188 28.082031 23.46875 C 28.082031 22.316406 28.597656 20.78125 33.015625 20.78125 C 36.964844 20.78125 38.417969 21.628906 39.019531 24.289062 C 39.070312 24.539062 39.296875 24.71875 39.554688 24.71875 L 42.050781 24.71875 C 42.207031 24.71875 42.351562 24.65625 42.460938 24.546875 C 42.5625 24.429688 42.617188 24.28125 42.605469 24.121094 C 42.21875 19.539062 39.171875 17.402344 33.015625 17.402344 C 27.539062 17.402344 24.269531 19.71875 24.269531 23.59375 C 24.269531 27.800781 27.519531 28.960938 32.78125 29.484375 C 39.070312 30.097656 39.558594 31.019531 39.558594 32.257812 C 39.558594 34.40625 37.832031 35.320312 33.789062 35.320312 Z M 33.789062 35.320312 " fill-opacity="1" fill-rule="nonzero"/></svg>