<svg xmlns="http://www.w3.org/2000/svg" xmlns:xlink="http://www.w3.org/1999/xlink" width="500" zoomAndPan="magnify" viewBox="0 0 375 374.999991" height="500" preserveAspectRatio="xMidYMid meet" version="1.0"><path fill="#ffffff" d="M 330.382812 88.867188 L 201.195312 13.855469 C 193.046875 9.214844 182.4375 9.214844 174.226562 13.855469 L 43.65625 88.867188 C 35.246094 93.707031 29.296875 102.796875 29.296875 112.519531 L 29.296875 262.351562 C 29.296875 272.074219 35.402344 281.167969 43.8125 286.03125 L 78.308594 305.625 C 94.796875 313.746094 100.625 313.746094 108.125 313.746094 C 132.539062 313.746094 146.484375 298.984375 146.484375 273.234375 L 146.484375 125.3125 C 146.484375 123.226562 145.398438 120.117188 143.347656 120.117188 L 126.871094 120.117188 C 124.785156 120.117188 120.117188 123.226562 120.117188 125.3125 L 120.117188 273.230469 C 120.117188 284.644531 109.792969 296.003906 90.496094 286.355469 L 54.851562 265.808594 C 53.609375 265.136719 52.734375 263.78125 52.734375 262.351562 L 52.734375 112.519531 C 52.734375 111.109375 54.359375 109.691406 55.613281 108.96875 L 185.757812 34.082031 C 186.976562 33.394531 188.761719 33.394531 189.976562 34.082031 L 318.535156 108.949219 C 319.765625 109.691406 319.332031 111.066406 319.332031 112.519531 L 319.332031 262.351562 C 319.332031 263.78125 319.871094 265.171875 318.652344 265.859375 L 189.496094 340.789062 C 188.386719 341.453125 187.015625 341.453125 185.800781 340.789062 L 152.675781 321.015625 C 151.675781 320.4375 150.488281 320.230469 149.53125 320.765625 C 140.316406 325.988281 138.617188 326.683594 129.96875 329.679688 C 127.84375 330.421875 124.707031 331.707031 131.171875 335.332031 L 174.523438 360.976562 C 178.675781 363.378906 183.394531 364.628906 188.140625 364.628906 C 192.949219 364.628906 197.660156 363.378906 201.8125 360.976562 L 330.378906 286.03125 C 338.789062 281.132812 342.773438 272.074219 342.773438 262.351562 L 342.773438 112.519531 C 342.773438 102.796875 338.789062 93.730469 330.382812 88.867188 Z M 228.253906 238.609375 C 193.898438 238.609375 186.332031 229.128906 183.808594 212.046875 C 183.515625 210.207031 181.953125 208.007812 180.082031 208.007812 L 163.292969 208.007812 C 161.214844 208.007812 159.546875 210.527344 159.546875 212.59375 C 159.546875 234.46875 171.4375 260.96875 228.253906 260.96875 C 269.386719 260.96875 292.964844 244.988281 292.964844 216.707031 C 292.964844 188.664062 274.019531 181.304688 234.132812 176.023438 C 193.8125 170.695312 189.71875 168.003906 189.71875 158.558594 C 189.71875 150.769531 193.1875 140.386719 223.039062 140.386719 C 249.714844 140.386719 259.546875 146.109375 263.59375 164.089844 C 263.9375 165.777344 265.480469 166.992188 267.226562 166.992188 L 284.082031 166.992188 C 285.121094 166.992188 286.109375 166.574219 286.835938 165.832031 C 287.539062 165.035156 287.910156 164.035156 287.816406 162.964844 C 285.207031 132.003906 264.636719 117.574219 223.039062 117.574219 C 186.03125 117.574219 163.957031 133.203125 163.957031 159.394531 C 163.957031 187.808594 185.921875 195.660156 221.445312 199.171875 C 263.9375 203.339844 267.242188 209.550781 267.242188 217.90625 C 267.242188 232.425781 255.589844 238.609375 228.253906 238.609375 Z M 228.253906 238.609375 " fill-opacity="1" fill-rule="nonzero"/></svg>