<svg width="70" height="75" viewBox="0 0 70 75" fill="none" xmlns="http://www.w3.org/2000/svg">
<path d="M69.9363 5.96862C69.4265 3.10368 67.3555 0.784447 64.711 0.170532C64.5835 0.136426 64.4561 0.136426 64.2968 0.102319C64.2649 0.102319 64.233 0.0341064 64.2012 0H5.76696C5.73509 0.0341064 5.70323 0.102319 5.63951 0.102319C2.99499 0.579809 0.764679 2.83083 0.159308 5.69577C0.127447 5.79809 0.0637233 5.93452 0 6.07094V68.7926C0.0318616 68.8608 0.0955849 68.895 0.0955849 68.9632C0.732817 72.101 2.51707 74.045 5.41648 74.8295C5.51206 74.8636 5.57579 74.9318 5.63951 75H64.2968C64.3605 74.9659 64.3924 74.8977 64.4561 74.8636C67.3555 74.1473 69.1397 72.2715 69.8726 69.1678C69.9044 69.0655 69.8726 68.9291 69.9044 68.8267C69.9044 68.7926 69.9681 68.7585 70 68.7244V6.17326C70 6.10505 69.9363 6.07094 69.9363 5.96862ZM40.6236 41.5757H40.2731C37.6286 41.5757 34.9522 41.5757 32.3077 41.5757C32.1802 41.5757 32.0528 41.5757 31.9254 41.5757C31.9254 41.6098 31.8935 41.6098 31.8935 41.6439C31.8935 41.7804 31.8935 41.9168 31.8935 42.0532V68.3493H24.9158V41.6098H16.1538V35.6412H40.5917V41.5757H40.6236ZM64.1375 59.4134C64.0737 60.573 63.9144 61.6985 63.4684 62.7899C63.3409 63.131 63.2453 63.4379 63.086 63.779C62.5125 65.075 61.5567 65.9959 60.4415 66.7462C59.167 67.5989 57.7651 68.0764 56.2995 68.3834C54.6746 68.7244 53.0496 68.8267 51.3928 68.7585C50.5963 68.7244 49.7997 68.7244 49.0032 68.6221C47.1234 68.3834 45.2754 67.94 43.5548 67.0532C43.4593 67.0191 43.3318 66.8486 43.3318 66.7462C43.3318 64.5293 43.3318 62.3124 43.3318 60.0955C43.3318 60.0614 43.3318 60.0273 43.3318 59.9591C43.8416 60.3342 44.3514 60.7094 44.8612 61.0164C46.1038 61.8008 47.4738 62.3465 48.8757 62.6876C50.0865 62.9945 51.2972 63.0287 52.508 62.9604C53.432 62.9263 54.3559 62.6876 55.1843 62.2442C55.9172 61.8349 56.5225 61.2892 56.6818 60.3684C56.8411 59.5498 56.7774 58.7312 56.3314 58.015C55.6941 56.9918 54.802 56.3438 53.8143 55.7981C52.6991 55.2183 51.584 54.7067 50.437 54.161C48.7483 53.3424 47.0915 52.4557 45.7214 51.0914C44.6063 49.9659 43.7779 48.6357 43.3955 47.0327C43.1725 46.0778 43.1088 45.1228 43.1406 44.1678C43.1725 41.8145 43.969 39.8022 45.5303 38.131C46.8047 36.7667 48.366 35.9482 50.0865 35.4707C51.2654 35.1637 52.4442 34.925 53.655 34.8909C54.5152 34.8909 55.3755 34.7885 56.2039 34.8226C57.5102 34.8568 58.7847 34.925 60.0592 35.266C60.8876 35.5048 61.7478 35.7435 62.5762 35.9482C62.7355 35.9823 62.7993 36.0846 62.7993 36.2892C62.7993 38.4038 62.7993 40.5525 62.7993 42.6671C62.7993 42.7353 62.7993 42.8035 62.7674 42.9059C62.5125 42.7353 62.2895 42.5989 62.0665 42.4625C61.0469 41.8486 59.9636 41.4393 58.8484 41.1323C57.6058 40.8254 56.3632 40.6207 55.0888 40.6548C54.2285 40.6889 53.3364 40.8254 52.5398 41.1323C51.5521 41.5075 50.7556 42.1214 50.4051 43.2469C50.1183 44.1337 50.3414 44.884 50.8512 45.6003C51.4884 46.487 52.3487 47.101 53.2726 47.5784C54.5152 48.2265 55.7897 48.7722 57.0005 49.3861C58.4024 50.1023 59.8043 50.8186 60.9832 51.8759C62.0027 52.7967 62.9267 53.8199 63.4365 55.1842C63.7233 56.0027 63.9782 56.8554 63.9782 57.7763C64.1056 58.322 64.1693 58.8677 64.1375 59.4134Z" fill="white"/>
</svg>
